# xmcd CD database file
#
# Track frame offsets:
#	150
#	32468
#	74339
#	102586
#	133535
#	176215
#
# Disc length: 2801 seconds
#
# Revision: 0
# Processed by: cddbd v1.5.2PL0 Copyright (c) Steve Scherf et al.
# Submitted via: CDex 1.60beta1-cs1
#
DISCID=510aef06
DTITLE=Mingus Dynasty - Chair In The Sky  [1979]
DYEAR=1979
DGENRE=Jazz
TTITLE0=Boogie stop shuffle
TTITLE1=Chair in the Sky
TTITLE2=My Jelly Roll Soul
TTITLE3=Sweet sucker dance
TTITLE4=The dry cleaner from Des Moines
TTITLE5=Goodbye porkpie hat
EXTD=YEAR: 1979
EXTT0=
EXTT1=
EXTT2=
EXTT3=
EXTT4=
EXTT5=
PLAYORDER=
